<svg xmlns="http://www.w3.org/2000/svg" viewBox="0 0 282.14 144"><defs><style>.cls-1,.cls-2,.cls-3{fill:#eeeced;}.cls-1,.cls-11,.cls-2{stroke:#000;stroke-miterlimit:10;}.cls-1,.cls-11{stroke-width:2px;}.cls-2{stroke-width:4px;}.cls-4{fill:#b8c0cd;}.cls-5{fill:#0067ac;}.cls-6{fill:#de412e;}.cls-7{fill:#8395ae;}.cls-8{fill:#a8b5c3;}.cls-9{fill:#f7f5f6;}.cls-10{fill:#fff;}.cls-11{fill:none;}.cls-12{fill:red;}.cls-13{fill:#ff0;}.cls-14{fill:lime;}</style></defs><g id="Layer_2" data-name="Layer 2"><g id="Layer_1-2" data-name="Layer 1"><rect class="cls-1" x="9" y="134.95" width="169" height="8.05" rx="4.02"/><rect class="cls-2" x="2" y="2" width="184" height="100" rx="11.69"/><path class="cls-3" d="M168.44,2c-36,56.88-91.87,87.6-159.73,98.89A11.68,11.68,0,0,1,2,90.31V13.69A11.69,11.69,0,0,1,13.69,2Z"/><path class="cls-4" d="M186,13.69V90.31A11.69,11.69,0,0,1,174.31,102H13.69a11.68,11.68,0,0,1-5-1.11C76.57,89.6,132.43,58.88,168.44,2h5.87A11.69,11.69,0,0,1,186,13.69Z"/><polygon class="cls-5" points="70.04 43.75 67.1 48.92 73.46 48.92 67.28 62.2 75.13 62.2 81.31 48.92 85.63 48.92 88.57 43.75 70.04 43.75"/><polygon class="cls-5" points="130.21 33 107.09 33 103.7 38.27 114.77 38.27 107.53 51.66 115.04 51.66 122.28 38.27 126.82 38.27 130.21 33"/><path class="cls-6" d="M109,38.29l-8.49,0H91.75L85.55,48.9h7.33l3-5.07,5.4.05-4.17,7.65H97v0H91.84l-2.52,5.38H99.44a2.26,2.26,0,0,0,2-1.07l6.49-11.93h0l0-.07h0l.73-1.44,1.41-2.59h-.11C110.45,39,110,38.29,109,38.29Z"/><polygon class="cls-6" points="84.5 51.55 81.98 56.93 89.32 56.93 91.83 51.55 84.5 51.55"/><ellipse cx="97.5" cy="90" rx="76.5" ry="3"/><ellipse class="cls-7" cx="96.5" cy="93" rx="76.5" ry="2"/><polygon class="cls-1" points="112.66 135 75 135 81.41 67 106.25 67 112.66 135"/><path class="cls-4" d="M80.64,134C98.16,117.09,108,94.38,102.7,68h2.55l6.41,66Z"/><ellipse cx="95.5" cy="99.5" rx="1.5" ry="20.5"/><ellipse class="cls-8" cx="96.5" cy="25" rx="52.5" ry="4"/><ellipse cx="97.5" cy="22.5" rx="53.5" ry="2.5"/><rect class="cls-9" x="12" y="48" width="20" height="24" rx="7.66"/><rect class="cls-9" x="32" y="32" width="10" height="10" rx="3.5"/><rect class="cls-10" x="195.14" y="2" width="86" height="141" rx="6.33"/><path class="cls-1" d="M281.14,8.33V136.67a6.33,6.33,0,0,1-6.33,6.33H201.47a6.32,6.32,0,0,1-6.33-6.33V8.33A6.32,6.32,0,0,1,201.47,2h73.34A6.33,6.33,0,0,1,281.14,8.33Z"/><path class="cls-4" d="M280,9.24V135.76a6.31,6.31,0,0,1-6.36,6.24H199.9c42.85-29.08,70.91-77.62,70.91-132.59,0-2.15,0-4.28-.13-6.41h3A6.31,6.31,0,0,1,280,9.24Z"/><rect class="cls-1" x="206.94" y="18" width="63.67" height="6"/><rect class="cls-1" x="206.94" y="32" width="63.67" height="6"/><circle class="cls-1" cx="239.3" cy="69.32" r="12.5"/><circle class="cls-1" cx="239.3" cy="69.72" r="4.47"/><line class="cls-11" x1="239.25" y1="62.46" x2="239.25" y2="69.9"/><ellipse class="cls-8" cx="240.86" cy="119.78" rx="33.86" ry="2.22"/><ellipse cx="241.5" cy="118.39" rx="34.5" ry="1.39"/><ellipse class="cls-8" cx="240.86" cy="125.78" rx="33.86" ry="2.22"/><ellipse cx="241.5" cy="124.39" rx="34.5" ry="1.39"/><ellipse class="cls-8" cx="240.86" cy="133.78" rx="33.86" ry="2.22"/><ellipse cx="241.5" cy="132.39" rx="34.5" ry="1.39"/><ellipse class="cls-9" cx="206.5" cy="69" rx="7.5" ry="11"/><ellipse class="cls-9" cx="217.5" cy="52.87" rx="3.5" ry="5.13"/><circle class="cls-12" cx="266" cy="21" r="1"/><circle class="cls-13" cx="263" cy="21" r="1"/><circle class="cls-14" cx="260" cy="21" r="1"/></g></g></svg>