<svg xmlns="http://www.w3.org/2000/svg" xmlns:xlink="http://www.w3.org/1999/xlink" viewBox="0 0 109.91 121.9"><defs><style>.cls-1{fill:#0067ac;}.cls-2{fill:#412f1f;}.cls-3{fill:url(#linear-gradient);}.cls-4{fill:url(#linear-gradient-2);}.cls-5{fill:#d1cdb6;}</style><linearGradient id="linear-gradient" x1="76.55" y1="40.21" x2="36.31" y2="63.44" gradientUnits="userSpaceOnUse"><stop offset="0" stop-color="#afe080"/><stop offset="0.13" stop-color="#a6da7b"/><stop offset="0.34" stop-color="#8cc96d"/><stop offset="0.62" stop-color="#63af57"/><stop offset="0.64" stop-color="#5fac55"/><stop offset="0.99" stop-color="#5aaa4e"/></linearGradient><linearGradient id="linear-gradient-2" x1="64.12" y1="8.2" x2="64.26" y2="101.63" gradientUnits="userSpaceOnUse"><stop offset="0" stop-color="#005503"/><stop offset="0.05" stop-color="#0c5f0d"/><stop offset="0.21" stop-color="#2a7827"/><stop offset="0.36" stop-color="#408a3a"/><stop offset="0.51" stop-color="#4e9545"/><stop offset="0.64" stop-color="#529949"/></linearGradient></defs><g id="Layer_2" data-name="Layer 2"><g id="Layer_1-2" data-name="Layer 1"><path class="cls-1" d="M51,119.62C8.72,96.5-7,63.2,2.84,17.81l.91-4.2,3.84-1.93A105,105,0,0,1,55.09,0c15.26,0,31,3.53,46.81,10.48l4.22,1.86,1,4.51c4.87,22.93,3.45,43.21-4.21,60.27-7.93,17.63-22.57,32-43.52,42.62l-4.23,2.16Z"/><path class="cls-2" d="M11.64,19.72c26.52-13.35,55.19-14.84,86.63-1,8.85,41.64-4.15,73.25-43,93C21.84,93.42,1.46,66.57,11.64,19.72Z"/><path class="cls-3" d="M55.16,18C45.81,23.91,38.74,34,37.25,51.16,35.49,71.59,45.4,79.61,55.16,87.09Z"/><path class="cls-4" d="M55.16,18C64.51,23.91,71.58,34,73.07,51.16c1.76,20.43-8.15,28.45-17.91,35.93Z"/><path class="cls-5" d="M57.07,97.72H53.25a.78.78,0,0,1-.78-.77V85.06a.77.77,0,0,1,.13-.42l1.91-2.94a.78.78,0,0,1,1.3,0l1.91,2.94a.77.77,0,0,1,.13.42V97A.78.78,0,0,1,57.07,97.72Z"/></g></g></svg>