<svg xmlns="http://www.w3.org/2000/svg" viewBox="0 0 235.87 259.92"><defs><style>.cls-1{fill:#8cc84b;}</style></defs><g id="Layer_2" data-name="Layer 2"><g id="Layer_1-2" data-name="Layer 1"><path class="cls-1" d="M107.29,2.77a21.81,21.81,0,0,1,21.28,0q48.6,27.46,97.19,54.9A20,20,0,0,1,235.87,74.9V185A20.25,20.25,0,0,1,225,202.64q-48.43,27.3-96.85,54.63a21.15,21.15,0,0,1-21.51-.59q-14.52-8.43-29.06-16.81c-2-1.17-4.21-2.11-5.61-4,1.24-1.67,3.45-1.87,5.24-2.6a67.93,67.93,0,0,0,11.47-5.35,2.68,2.68,0,0,1,3,.18c8.28,4.75,16.48,9.63,24.79,14.33,1.77,1,3.56-.33,5.08-1.18q47.52-26.86,95.09-53.66a3.17,3.17,0,0,0,1.73-3.1q0-54.5,0-109a3.42,3.42,0,0,0-2-3.4q-48.27-27.18-96.51-54.4a3.36,3.36,0,0,0-3.79,0Q67.79,44.86,19.54,72.09a3.35,3.35,0,0,0-2,3.38q0,54.5,0,109a3.1,3.1,0,0,0,1.75,3.06L45,202.08c4.84,2.61,10.78,4.15,16.12,2.16a12.23,12.23,0,0,0,7.91-11.49c0-36.12,0-72.24,0-108.35a2.73,2.73,0,0,1,3-2.78c4.12,0,8.25-.05,12.38,0a2.86,2.86,0,0,1,2.69,3.31c0,36.34,0,72.69,0,109,0,9.68-4,20.22-12.93,25-11,5.72-24.68,4.51-35.58-1-9.44-4.71-18.45-10.27-27.73-15.32A20.18,20.18,0,0,1,0,185V74.9A20,20,0,0,1,10.45,57.45Q58.89,30.12,107.29,2.77Z"/><path class="cls-1" d="M135.46,79.06c14.08-.9,29.15-.54,41.82,6.4,9.81,5.32,15.25,16.47,15.42,27.37a3,3,0,0,1-3.21,2.18c-4.09,0-8.17.06-12.26,0-1.73.07-2.74-1.53-3-3.06-1.17-5.21-4-10.38-8.92-12.89-7.54-3.78-16.27-3.59-24.49-3.51-6,.32-12.45.84-17.53,4.37-3.9,2.67-5.08,8.06-3.69,12.4,1.31,3.12,4.91,4.13,7.86,5.06,17,4.44,34.95,4,51.59,9.83,6.89,2.39,13.63,7,16,14.23,3.09,9.67,1.74,21.23-5.14,29-5.58,6.39-13.71,9.87-21.81,11.75-10.79,2.41-22,2.47-32.93,1.4-10.29-1.17-21-3.88-28.95-10.89-6.8-5.9-10.12-15.1-9.79-24a2.74,2.74,0,0,1,3-2.42c4.11,0,8.22-.05,12.34,0a2.87,2.87,0,0,1,2.94,2.85c.76,5,2.63,10.19,7,13.13,8.36,5.4,18.85,5,28.43,5.18,7.93-.35,16.83-.46,23.31-5.7,3.41-3,4.42-8,3.5-12.3-1-3.63-4.8-5.33-8.06-6.43-16.76-5.3-34.94-3.38-51.53-9.37-6.73-2.38-13.24-6.88-15.83-13.8-3.61-9.79-2-21.91,5.64-29.41,7.42-7.46,18.11-10.33,28.29-11.36Z"/></g></g></svg>