<svg xmlns="http://www.w3.org/2000/svg" viewBox="0 0 301.13 98.32"><defs><style>.cls-1{fill:#0067ac;}.cls-1,.cls-2,.cls-3{stroke:#000;stroke-miterlimit:10;}.cls-2{fill:#de412e;}.cls-3{fill:navy;}</style></defs><g id="Layer_2" data-name="Layer 2"><g id="Layer_1-2" data-name="Layer 1"><polygon class="cls-1" points="96.27 20.9 88.63 36.73 105.16 36.73 89.11 77.41 109.5 77.41 125.55 36.73 136.77 36.73 144.41 20.9 96.27 20.9"/><polygon class="cls-1" points="198.6 20.9 190.96 36.73 207.48 36.73 191.44 77.41 211.83 77.41 227.87 36.73 239.1 36.73 246.74 20.9 198.6 20.9"/><path class="cls-2" d="M190.45,21l-21.19-.07v0h-3.58v0H147.36l-15.5,32.19h18.32l7.38-15.34,13.46.14L160.63,61.06h-.15v.07H147.56l-6.28,16.28h25.25a5.48,5.48,0,0,0,5-3.22l16.21-36.13h0l.11-.24H188l1.81-4.35,3.51-7.83h-.26C194,23,192.9,21,190.45,21Z"/><polygon class="cls-2" points="129.25 61.13 122.97 77.41 141.28 77.41 144.68 68.59 147.56 61.13 129.25 61.13"/><polyline class="cls-1" points="1.33 43.64 1.33 55.37 47.76 37.12 47.76 23.53 1.33 43.64"/><polygon class="cls-3" points="47.76 74.78 1.33 55.37 18.81 48.5 47.76 60.45 47.76 74.78"/><polyline class="cls-1" points="299.8 54.68 299.8 42.95 253.37 61.2 253.37 74.78 299.8 54.68"/><polygon class="cls-3" points="253.37 23.53 299.8 42.95 282.32 49.81 253.37 37.87 253.37 23.53"/><polygon class="cls-2" points="83.64 0.5 97.45 0.5 55.28 97.82 41.47 97.82 83.64 0.5"/></g></g></svg>