<svg xmlns="http://www.w3.org/2000/svg" viewBox="0 0 298.47 97.32"><defs><style>.cls-1{fill:#0067ac;}.cls-2{fill:#de412e;}.cls-3{fill:navy;}</style></defs><g id="Layer_2" data-name="Layer 2"><g id="Layer_1-2" data-name="Layer 1"><polygon class="cls-1" points="94.94 20.4 87.3 36.23 103.83 36.23 87.78 76.91 108.17 76.91 124.22 36.23 135.44 36.23 143.08 20.4 94.94 20.4"/><polygon class="cls-1" points="197.27 20.4 189.63 36.23 206.15 36.23 190.11 76.91 210.5 76.91 226.54 36.23 237.77 36.23 245.41 20.4 197.27 20.4"/><path class="cls-2" d="M189.12,20.47l-21.19-.07v0h-3.58v0H146l-15.5,32.19h18.32l7.38-15.34,13.46.14L159.3,60.56h-.15v.07H146.23l-6.29,16.28H165.2a5.48,5.48,0,0,0,5-3.22l16.21-36.13h0l.11-.24h.12L188.47,33,192,25.14h-.26C192.7,22.54,191.57,20.47,189.12,20.47Z"/><polygon class="cls-2" points="127.92 60.63 121.64 76.91 139.94 76.91 146.23 60.63 127.92 60.63"/><polyline class="cls-1" points="0 43.14 0 54.87 46.43 36.62 46.43 23.03 0 43.14"/><polygon class="cls-3" points="46.43 74.28 0 54.87 17.48 48 46.43 59.95 46.43 74.28"/><polyline class="cls-1" points="298.46 54.18 298.46 42.45 252.04 60.7 252.04 74.28 298.46 54.18"/><polygon class="cls-3" points="252.04 23.03 298.46 42.45 280.99 49.31 252.04 37.37 252.04 23.03"/><polygon class="cls-2" points="82.31 0 96.12 0 53.95 97.32 40.14 97.32 82.31 0"/></g></g></svg>