<svg xmlns="http://www.w3.org/2000/svg" viewBox="0 0 490.43 277"><defs><style>.cls-1{fill:#0067ac;}.cls-2{fill:#de412e;}</style></defs><g id="Layer_2" data-name="Layer 2"><g id="Layer_1-2" data-name="Layer 1"><polygon class="cls-1" points="22.85 102 0 151 49.43 151 1.43 277 62.43 277 110.43 151 144 151 166.85 102 22.85 102"/><polygon class="cls-1" points="490.43 0 310.78 0 284.43 50 370.41 50 314.19 177 372.56 177 428.77 50 464.07 50 490.43 0"/><path class="cls-2" d="M325.74,50.19l-66-.19,0,0H248.58l0,0h-57L143.34,150.82h57l23-48.06,41.91.43-32.38,72.58h-.46V176H192.21l-19.57,51h78.64a17,17,0,0,0,15.55-10.09l50.48-113.19h.07l.34-.72h.37l5.63-13.64,10.94-24.53-.82,0C336.89,56.7,333.36,50.21,325.74,50.19Z"/><polygon class="cls-2" points="135.21 176 115.64 227 172.64 227 192.21 176 135.21 176"/></g></g></svg>